<?xml version="1.0" encoding="UTF-8"?>
<svg version="1.1" xmlns="http://www.w3.org/2000/svg" width="67" height="60">
<path d="M0 0 C1.65 0 3.3 0 5 0 C5 1.65 5 3.3 5 5 C4.27425781 5.24363281 3.54851562 5.48726563 2.80078125 5.73828125 C-0.34439883 7.15514759 -2.30204281 8.83115811 -4.8125 11.1875 C-5.68519531 11.99574219 -6.55789062 12.80398438 -7.45703125 13.63671875 C-8.29621094 14.41660156 -9.13539062 15.19648438 -10 16 C-11.32789696 17.17285061 -12.66079403 18.34007921 -14 19.5 C-17.02754767 22.13689636 -20.01937279 24.81016569 -23 27.5 C-26.61676345 30.76390848 -30.26389608 33.98790949 -33.9375 37.1875 C-36.30964429 39.27211164 -38.65556065 41.38428644 -41 43.5 C-42.66628597 45.00042289 -44.33293678 46.50044074 -46 48 C-47.07314453 48.96679688 -47.07314453 48.96679688 -48.16796875 49.953125 C-52.27288435 53.6054677 -56.47133824 56.88654504 -61 60 C-61 57 -61 57 -58.875 54.765625 C-57.92625 53.93546875 -56.9775 53.1053125 -56 52.25 C-55.49670166 51.805354 -54.99340332 51.36070801 -54.47485352 50.90258789 C-52.99019372 49.59378972 -51.49525419 48.29668125 -50 47 C-49.28714844 46.37480469 -48.57429688 45.74960937 -47.83984375 45.10546875 C-46.57143018 43.9933279 -45.3005901 42.88394845 -44.02734375 41.77734375 C-41.66510827 39.70640513 -39.33204147 37.60487152 -37 35.5 C-33.38323655 32.23609152 -29.73610392 29.01209051 -26.0625 25.8125 C-23.69035571 23.72788836 -21.34443935 21.61571356 -19 19.5 C-7.41371774 9.05276853 -7.41371774 9.05276853 -3.0625 5.8125 C-0.85082007 3.86890248 -0.30920227 2.88588781 0 0 Z M2 1 C2 1.99 2 2.98 2 4 C2.66 3.34 3.32 2.68 4 2 C3.34 1.67 2.68 1.34 2 1 Z " fill="#191919" transform="translate(62,0)"/>
</svg>
